<?xml version="1.0" standalone="no"?>
<!DOCTYPE svg PUBLIC "-//W3C//DTD SVG 20010904//EN"
 "http://www.w3.org/TR/2001/REC-SVG-20010904/DTD/svg10.dtd">
<svg version="1.0" xmlns="http://www.w3.org/2000/svg"
 width="16.000000pt" height="16.000000pt" viewBox="0 0 16.000000 16.000000"
 preserveAspectRatio="xMidYMid meet">
<metadata>
Created by potrace 1.11, written by Peter Selinger 2001-2013
</metadata>
<g transform="translate(0.000000,16.000000) scale(0.003678,-0.003678)"
fill="#000000" stroke="none">
<path d="M2153 3035 c0 -8 4 -12 9 -9 5 3 6 10 3 15 -9 13 -12 11 -12 -6z"/>
<path d="M2234 3030 c0 -13 4 -16 10 -10 7 7 7 13 0 20 -6 6 -10 3 -10 -10z"/>
<path d="M2060 3036 c0 -2 8 -10 18 -17 15 -13 16 -12 3 4 -13 16 -21 21 -21
13z"/>
<path d="M2119 3023 c-13 -16 -12 -17 4 -4 9 7 17 15 17 17 0 8 -8 3 -21 -13z"/>
<path d="M2265 2989 c-3 -4 2 -6 10 -5 21 3 28 13 10 13 -9 0 -18 -4 -20 -8z"/>
<path d="M2270 2966 c0 -2 8 -10 18 -17 15 -13 16 -12 3 4 -13 16 -21 21 -21
13z"/>
<path d="M2119 2943 c-13 -16 -12 -17 4 -4 9 7 17 15 17 17 0 8 -8 3 -21 -13z"/>
<path d="M2233 2935 c0 -8 4 -12 9 -9 5 3 6 10 3 15 -9 13 -12 11 -12 -6z"/>
<path d="M2370 2929 c0 -5 5 -7 10 -4 6 3 10 8 10 11 0 2 -4 4 -10 4 -5 0 -10
-5 -10 -11z"/>
<path d="M2279 2903 c-13 -16 -12 -17 4 -4 9 7 17 15 17 17 0 8 -8 3 -21 -13z"/>
<path d="M1949 2873 c-13 -16 -12 -17 4 -4 9 7 17 15 17 17 0 8 -8 3 -21 -13z"/>
<path d="M2386 2872 c-3 -5 1 -9 9 -9 8 0 12 4 9 9 -3 4 -7 8 -9 8 -2 0 -6 -4
-9 -8z"/>
<path d="M1905 2850 c-3 -6 1 -7 9 -4 18 7 21 14 7 14 -6 0 -13 -4 -16 -10z"/>
<path d="M1975 2839 c-4 -6 -5 -12 -2 -15 2 -3 7 2 10 11 7 17 1 20 -8 4z"/>
<path d="M2255 2839 c-4 -6 -5 -12 -2 -15 2 -3 7 2 10 11 7 17 1 20 -8 4z"/>
<path d="M2430 2831 c0 -6 4 -13 10 -16 6 -3 7 1 4 9 -7 18 -14 21 -14 7z"/>
<path d="M1949 2793 c-13 -16 -12 -17 4 -4 9 7 17 15 17 17 0 8 -8 3 -21 -13z"/>
<path d="M2125 2770 c-4 -6 -11 -7 -17 -4 -7 4 -8 2 -4 -4 8 -13 -28 -35 -39
-24 -5 4 -5 1 -1 -5 4 -8 -7 -27 -28 -48 -45 -45 -111 -134 -133 -179 -9 -19
-21 -32 -26 -29 -6 3 -7 1 -3 -5 4 -6 2 -19 -3 -29 -25 -45 -61 -205 -54 -239
2 -10 5 -24 5 -31 1 -7 4 -10 8 -8 15 9 73 -62 63 -78 -3 -5 -1 -7 5 -4 5 4
26 -14 44 -40 53 -73 111 -183 97 -183 -7 0 -9 -3 -5 -7 4 -5 12 -8 18 -8 6 0
12 -7 14 -15 1 -8 13 -42 27 -75 14 -33 28 -75 32 -93 9 -43 18 -33 40 42 16
59 90 226 103 236 4 3 13 18 20 33 7 17 17 25 24 21 7 -4 8 -3 4 5 -8 12 34
71 117 164 25 29 27 37 23 90 -3 32 -7 61 -10 66 -3 4 -8 23 -11 42 -6 38 -82
196 -105 219 -3 3 -23 28 -45 55 -74 92 -148 155 -160 135z"/>
<path d="M1230 2726 c0 -2 8 -10 18 -17 15 -13 16 -12 3 4 -13 16 -21 21 -21
13z"/>
<path d="M2270 2726 c0 -2 8 -10 18 -17 15 -13 16 -12 3 4 -13 16 -21 21 -21
13z"/>
<path d="M1273 2705 c0 -8 4 -12 9 -9 5 3 6 10 3 15 -9 13 -12 11 -12 -6z"/>
<path d="M2316 2708 c3 -5 10 -6 15 -3 13 9 11 12 -6 12 -8 0 -12 -4 -9 -9z"/>
<path d="M3080 2710 c-9 -6 -10 -10 -3 -10 6 0 15 5 18 10 8 12 4 12 -15 0z"/>
<path d="M3159 2703 c-13 -16 -12 -17 4 -4 16 13 21 21 13 21 -2 0 -10 -8 -17
-17z"/>
<path d="M1156 2677 c3 -10 9 -15 12 -12 3 3 0 11 -7 18 -10 9 -11 8 -5 -6z"/>
<path d="M1275 2671 c-3 -5 -2 -12 3 -15 5 -3 9 1 9 9 0 17 -3 19 -12 6z"/>
<path d="M2996 2668 c3 -5 10 -6 15 -3 13 9 11 12 -6 12 -8 0 -12 -4 -9 -9z"/>
<path d="M3066 2672 c-2 -4 4 -8 14 -8 10 0 16 4 14 8 -3 4 -9 8 -14 8 -5 0
-11 -4 -14 -8z"/>
<path d="M1347 2649 c7 -7 15 -10 18 -7 3 3 -2 9 -12 12 -14 6 -15 5 -6 -5z"/>
<path d="M1230 2646 c0 -2 8 -10 18 -17 15 -13 16 -12 3 4 -13 16 -21 21 -21
13z"/>
<path d="M2909 2633 c-13 -16 -12 -17 4 -4 16 13 21 21 13 21 -2 0 -10 -8 -17
-17z"/>
<path d="M2990 2646 c0 -2 8 -10 18 -17 15 -13 16 -12 3 4 -13 16 -21 21 -21
13z"/>
<path d="M3039 2648 c-5 -18 -6 -38 -1 -34 7 8 12 36 6 36 -2 0 -4 -1 -5 -2z"/>
<path d="M1300 2636 c0 -2 8 -10 18 -17 15 -13 16 -12 3 4 -13 16 -21 21 -21
13z"/>
<path d="M1380 2636 c0 -2 8 -10 18 -17 15 -13 16 -12 3 4 -13 16 -21 21 -21
13z"/>
<path d="M1439 2623 c-13 -16 -12 -17 4 -4 9 7 17 15 17 17 0 8 -8 3 -21 -13z"/>
<path d="M2439 2623 c-13 -16 -12 -17 4 -4 9 7 17 15 17 17 0 8 -8 3 -21 -13z"/>
<path d="M2475 2631 c-3 -5 -2 -12 3 -15 5 -3 9 1 9 9 0 17 -3 19 -12 6z"/>
<path d="M3060 2636 c0 -2 8 -10 18 -17 15 -13 16 -12 3 4 -13 16 -21 21 -21
13z"/>
<path d="M3159 2623 c-13 -16 -12 -17 4 -4 16 13 21 21 13 21 -2 0 -10 -8 -17
-17z"/>
<path d="M1196 2612 c-3 -5 1 -9 9 -9 8 0 12 4 9 9 -3 4 -7 8 -9 8 -2 0 -6 -4
-9 -8z"/>
<path d="M1816 2605 c-9 -26 -7 -32 5 -12 6 10 9 21 6 23 -2 3 -7 -2 -11 -11z"/>
<path d="M1896 2597 c3 -10 9 -15 12 -12 3 3 0 11 -7 18 -10 9 -11 8 -5 -6z"/>
<path d="M2935 2599 c-4 -6 -5 -12 -2 -15 2 -3 7 2 10 11 7 17 1 20 -8 4z"/>
<path d="M2970 2606 c0 -2 8 -10 18 -17 15 -13 16 -12 3 4 -13 16 -21 21 -21
13z"/>
<path d="M1379 2583 c-13 -16 -12 -17 4 -4 9 7 17 15 17 17 0 8 -8 3 -21 -13z"/>
<path d="M2424 2592 c4 -3 14 -7 22 -8 9 -1 13 0 10 4 -4 3 -14 7 -22 8 -9 1
-13 0 -10 -4z"/>
<path d="M2806 2592 c-3 -5 1 -9 9 -9 8 0 12 4 9 9 -3 4 -7 8 -9 8 -2 0 -6 -4
-9 -8z"/>
<path d="M1434 2556 c1 -8 5 -18 8 -22 4 -3 5 1 4 10 -1 8 -5 18 -8 22 -4 3
-5 -1 -4 -10z"/>
<path d="M1469 2553 c-13 -16 -12 -17 4 -4 9 7 17 15 17 17 0 8 -8 3 -21 -13z"/>
<path d="M2909 2553 c-13 -16 -12 -17 4 -4 16 13 21 21 13 21 -2 0 -10 -8 -17
-17z"/>
<path d="M3069 2553 c-13 -16 -12 -17 4 -4 16 13 21 21 13 21 -2 0 -10 -8 -17
-17z"/>
<path d="M1399 2543 c-13 -16 -12 -17 4 -4 9 7 17 15 17 17 0 8 -8 3 -21 -13z"/>
<path d="M2735 2550 c3 -5 8 -10 11 -10 2 0 4 5 4 10 0 6 -5 10 -11 10 -5 0
-7 -4 -4 -10z"/>
<path d="M2395 2521 c-3 -5 -2 -12 3 -15 5 -3 9 1 9 9 0 17 -3 19 -12 6z"/>
<path d="M1396 2512 c-3 -5 1 -9 9 -9 8 0 12 4 9 9 -3 4 -7 8 -9 8 -2 0 -6 -4
-9 -8z"/>
<path d="M2515 2490 c3 -5 8 -10 11 -10 2 0 4 5 4 10 0 6 -5 10 -11 10 -5 0
-7 -4 -4 -10z"/>
<path d="M2429 2473 c-13 -16 -12 -17 4 -4 9 7 17 15 17 17 0 8 -8 3 -21 -13z"/>
<path d="M1234 2459 c0 -10 4 -15 8 -13 13 8 9 -11 -4 -25 -10 -11 -10 -13 0
-7 9 5 12 -5 13 -36 1 -24 2 -55 3 -70 0 -14 4 -24 8 -22 5 3 9 -7 10 -23 1
-33 3 -43 11 -63 18 -48 28 -93 23 -106 -4 -10 -2 -13 6 -8 8 5 9 2 5 -10 -4
-9 -3 -15 2 -12 4 3 13 -5 19 -18 8 -19 17 -23 41 -21 17 1 31 0 31 -4 0 -3
15 -6 33 -7 17 0 43 -3 57 -7 14 -3 33 -6 43 -6 10 -1 16 -5 13 -10 -3 -5 0
-9 7 -8 38 1 58 -4 52 -14 -4 -6 -1 -10 6 -8 29 3 48 -2 63 -16 8 -9 18 -15
21 -15 11 2 105 -53 105 -62 0 -4 7 -8 16 -8 10 0 14 -6 11 -14 -4 -9 -1 -13
6 -10 38 14 257 -259 257 -320 0 -9 5 -16 11 -16 5 0 8 -4 4 -9 -3 -5 -1 -12
4 -16 6 -3 8 4 5 17 -3 13 -8 36 -11 53 -17 94 -95 315 -125 352 -5 7 -6 18
-2 24 4 8 3 9 -4 5 -7 -4 -12 -2 -12 5 0 6 -16 34 -35 60 -37 51 -43 65 -23
53 7 -4 8 -3 4 5 -4 6 -11 9 -16 6 -9 -5 -76 74 -72 87 1 4 -4 7 -10 6 -7 -2
-12 3 -10 10 1 8 -2 11 -6 8 -12 -7 -44 28 -35 39 5 4 3 5 -3 2 -14 -8 -37 16
-27 27 4 4 0 4 -8 1 -9 -3 -22 2 -30 11 -8 10 -9 15 -3 11 6 -3 11 0 11 8 0
11 -4 12 -14 3 -10 -8 -18 -6 -32 11 -11 12 -21 22 -23 21 -11 -4 -37 14 -31
23 3 6 1 7 -5 3 -13 -8 -75 28 -65 38 4 4 0 4 -10 0 -10 -3 -17 -1 -17 6 0 6
-4 9 -9 5 -5 -3 -12 -1 -16 5 -4 6 -11 7 -17 4 -7 -4 -8 -2 -4 4 4 7 1 12 -9
12 -8 0 -23 4 -33 9 -9 5 -38 15 -64 23 -27 7 -48 16 -48 21 0 5 -6 7 -14 4
-7 -3 -24 0 -38 7 -21 11 -24 10 -24 -5z"/>
<path d="M1666 2468 c3 -5 10 -6 15 -3 13 9 11 12 -6 12 -8 0 -12 -4 -9 -9z"/>
<path d="M2900 2476 c0 -2 8 -10 18 -17 15 -13 16 -12 3 4 -13 16 -21 21 -21
13z"/>
<path d="M2956 2463 c-6 -14 -5 -15 5 -6 7 7 10 15 7 18 -3 3 -9 -2 -12 -12z"/>
<path d="M2970 2449 c-30 -11 -57 -20 -60 -20 -3 -1 -16 -6 -30 -12 -14 -6
-28 -10 -32 -9 -5 1 -8 -3 -8 -9 0 -8 -6 -7 -17 2 -10 7 -15 9 -10 4 8 -10
-43 -46 -55 -39 -4 3 -8 0 -8 -7 0 -6 -8 -9 -20 -6 -11 3 -18 1 -15 -3 3 -5
-19 -23 -47 -42 -68 -42 -76 -46 -58 -22 12 17 12 17 0 6 -8 -7 -15 -18 -15
-24 0 -6 -8 -16 -18 -22 -29 -17 -140 -128 -165 -164 -13 -18 -28 -30 -33 -27
-5 4 -9 -1 -9 -10 0 -9 -9 -25 -20 -37 -11 -12 -20 -28 -20 -35 0 -8 -5 -11
-12 -7 -7 5 -8 3 -3 -6 4 -7 4 -15 -1 -19 -13 -8 -79 -146 -98 -201 -17 -51
-36 -123 -43 -160 -2 -13 -8 -29 -14 -36 -5 -6 -6 -14 -2 -17 3 -4 0 -13 -6
-21 -9 -11 -9 -16 0 -22 8 -4 9 -3 5 4 -4 7 -3 12 3 12 5 0 11 -3 14 -7 2 -5
2 -2 0 6 -2 7 2 20 9 29 7 8 12 18 12 21 -4 14 38 81 68 112 18 18 26 29 18
25 -8 -4 -4 2 9 13 13 12 20 21 17 21 -3 0 6 13 20 30 15 16 31 27 37 23 6 -3
7 -1 3 5 -7 12 4 21 35 27 12 3 24 7 28 11 3 4 -2 4 -11 1 -10 -4 -18 -2 -18
3 0 9 14 14 32 11 5 0 7 3 5 8 -1 5 1 10 5 10 4 1 19 13 33 27 14 14 30 22 35
19 6 -3 10 -1 10 5 0 7 7 9 16 6 8 -3 12 -2 9 4 -8 12 52 43 67 34 7 -5 8 -3
3 6 -6 10 -3 12 13 8 12 -4 20 -2 17 2 -5 8 42 27 83 35 9 2 17 4 17 5 0 7
112 24 161 24 35 1 41 4 38 19 -1 10 2 20 9 23 7 2 13 15 13 29 1 14 5 33 10
43 9 22 11 28 13 48 0 8 4 13 9 10 4 -2 7 12 6 32 -1 21 6 45 15 56 11 14 12
17 2 11 -10 -6 -12 -4 -6 5 8 12 20 171 14 169 -2 0 -29 -9 -59 -20z"/>
<path d="M2670 2366 c0 -2 8 -10 18 -17 15 -13 16 -12 3 4 -13 16 -21 21 -21
13z"/>
<path d="M1786 2352 c-2 -4 4 -8 14 -8 10 0 16 4 14 8 -3 4 -9 8 -14 8 -5 0
-11 -4 -14 -8z"/>
<path d="M2590 2336 c0 -2 7 -7 16 -10 8 -3 12 -2 9 4 -6 10 -25 14 -25 6z"/>
<path d="M2509 2313 c-13 -16 -12 -17 4 -4 9 7 17 15 17 17 0 8 -8 3 -21 -13z"/>
<path d="M1780 2276 c0 -2 8 -10 18 -17 15 -13 16 -12 3 4 -13 16 -21 21 -21
13z"/>
<path d="M2555 2270 c-3 -5 -1 -10 4 -10 6 0 11 5 11 10 0 6 -2 10 -4 10 -3 0
-8 -4 -11 -10z"/>
<path d="M2510 2246 c0 -2 8 -10 18 -17 15 -13 16 -12 3 4 -13 16 -21 21 -21
13z"/>
<path d="M3055 2210 c-3 -5 -1 -10 4 -10 6 0 11 5 11 10 0 6 -2 10 -4 10 -3 0
-8 -4 -11 -10z"/>
<path d="M3290 2211 c0 -6 4 -13 10 -16 6 -3 7 1 4 9 -7 18 -14 21 -14 7z"/>
<path d="M3473 2195 c0 -8 4 -12 9 -9 5 3 6 10 3 15 -9 13 -12 11 -12 -6z"/>
<path d="M3545 2190 c-3 -6 1 -7 9 -4 18 7 21 14 7 14 -6 0 -13 -4 -16 -10z"/>
<path d="M3610 2169 c0 -5 5 -7 10 -4 6 3 10 8 10 11 0 2 -4 4 -10 4 -5 0 -10
-5 -10 -11z"/>
<path d="M990 2166 c0 -2 8 -10 18 -17 15 -13 16 -12 3 4 -13 16 -21 21 -21
13z"/>
<path d="M3096 2157 c3 -10 9 -15 12 -12 3 3 0 11 -7 18 -10 9 -11 8 -5 -6z"/>
<path d="M3344 2152 c4 -3 14 -7 22 -8 9 -1 13 0 10 4 -4 3 -14 7 -22 8 -9 1
-13 0 -10 -4z"/>
<path d="M1275 2141 c-3 -5 -2 -12 3 -15 5 -3 9 1 9 9 0 17 -3 19 -12 6z"/>
<path d="M3079 2128 c-5 -18 -6 -38 -1 -34 7 8 12 36 6 36 -2 0 -4 -1 -5 -2z"/>
<path d="M3159 2128 c-5 -18 -6 -38 -1 -34 7 8 12 36 6 36 -2 0 -4 -1 -5 -2z"/>
<path d="M1140 2116 c0 -2 8 -10 18 -17 15 -13 16 -12 3 4 -13 16 -21 21 -21
13z"/>
<path d="M3030 2116 c0 -2 7 -7 16 -10 8 -3 12 -2 9 4 -6 10 -25 14 -25 6z"/>
<path d="M3104 2112 c4 -3 14 -7 22 -8 9 -1 13 0 10 4 -4 3 -14 7 -22 8 -9 1
-13 0 -10 -4z"/>
<path d="M956 2088 c3 -5 10 -6 15 -3 13 9 11 12 -6 12 -8 0 -12 -4 -9 -9z"/>
<path d="M999 2063 c-13 -16 -12 -17 4 -4 9 7 17 15 17 17 0 8 -8 3 -21 -13z"/>
<path d="M3050 2071 c0 -6 4 -13 10 -16 6 -3 7 1 4 9 -7 18 -14 21 -14 7z"/>
<path d="M3265 2069 c-3 -4 2 -6 10 -5 21 3 28 13 10 13 -9 0 -18 -4 -20 -8z"/>
<path d="M3273 2035 c0 -8 4 -12 9 -9 5 3 6 10 3 15 -9 13 -12 11 -12 -6z"/>
<path d="M864 2015 c4 -29 81 -156 98 -163 4 -2 8 -9 8 -15 0 -7 9 -18 20 -25
12 -7 18 -18 14 -24 -4 -6 -3 -8 3 -5 6 4 18 -4 28 -17 14 -19 26 -22 64 -21
25 1 52 -3 60 -9 11 -8 13 -8 8 0 -5 8 14 12 63 12 51 0 68 -3 63 -11 -5 -9
-3 -9 8 -1 8 6 43 10 79 8 36 -1 84 -2 108 -3 29 -1 41 -5 36 -12 -4 -8 -1 -8
13 -1 11 6 25 7 33 2 8 -5 18 -6 23 -3 5 3 13 -1 18 -8 7 -11 9 -11 9 -1 0 9
5 10 18 3 9 -5 20 -9 25 -9 27 -1 87 -15 87 -21 0 -4 6 -8 13 -9 37 -3 137
-43 137 -54 0 -5 7 -8 15 -8 19 0 159 -135 152 -147 -3 -5 0 -10 8 -10 10 0 7
13 -11 49 -14 27 -22 54 -18 60 4 7 3 8 -4 4 -7 -4 -12 -1 -12 8 0 9 -5 16
-12 16 -6 0 -9 2 -6 5 13 13 -125 159 -212 225 -66 50 -155 101 -177 102 -4 0
-17 5 -28 11 -11 7 -24 13 -30 13 -5 1 -13 3 -17 4 -5 1 -12 4 -18 5 -5 1 -11
3 -12 4 -2 2 -21 5 -43 7 -21 3 -44 8 -50 12 -5 4 -32 7 -60 7 -27 0 -53 4
-57 10 -5 6 -8 6 -8 -2 0 -7 -10 -10 -24 -7 -14 2 -28 -1 -31 -7 -5 -6 -12 -4
-22 8 -8 10 -11 12 -7 4 5 -11 2 -13 -14 -9 -12 4 -22 2 -22 -2 0 -10 -181 -7
-220 3 -14 4 -37 9 -52 13 -16 3 -33 13 -39 22 -8 14 -9 11 -5 -13z"/>
<path d="M986 2028 c3 -5 10 -6 15 -3 13 9 11 12 -6 12 -8 0 -12 -4 -9 -9z"/>
<path d="M1255 2030 c-3 -5 -1 -10 4 -10 6 0 11 5 11 10 0 6 -2 10 -4 10 -3 0
-8 -4 -11 -10z"/>
<path d="M3404 2019 c-3 -6 -15 -9 -25 -6 -12 3 -17 1 -12 -6 4 -6 -2 -8 -15
-5 -12 4 -20 2 -16 -3 3 -5 -1 -9 -8 -9 -7 -1 -37 -3 -67 -6 -43 -5 -52 -3
-46 8 6 10 5 11 -6 1 -7 -7 -22 -13 -34 -13 -12 0 -27 6 -34 13 -11 10 -13 10
-7 0 4 -7 2 -13 -3 -13 -6 0 -11 6 -11 13 0 8 -3 7 -10 -3 -8 -13 -11 -12 -25
5 -9 11 -14 15 -11 9 7 -14 -21 -27 -29 -14 -3 4 -19 6 -37 3 -30 -4 -31 -4
-18 14 14 17 14 17 -6 1 -11 -10 -24 -18 -29 -18 -4 0 -1 8 6 18 13 15 12 16
-4 3 -10 -8 -34 -16 -54 -18 -19 -2 -41 -5 -47 -6 -6 -1 -10 4 -8 11 1 8 -2
11 -8 7 -6 -3 -8 -10 -5 -15 3 -4 -14 -11 -37 -15 -24 -4 -59 -13 -79 -20 -28
-10 -40 -11 -48 -2 -9 9 -10 7 -5 -7 6 -15 4 -18 -9 -13 -8 3 -21 -1 -27 -8
-7 -8 -16 -13 -20 -10 -5 3 -12 0 -15 -5 -6 -9 -54 -33 -62 -31 -2 1 -12 -8
-23 -19 -12 -12 -26 -18 -32 -14 -6 4 -8 3 -4 -4 3 -6 -8 -21 -26 -33 -55 -40
-119 -111 -175 -196 -29 -44 -53 -86 -53 -91 0 -6 -5 -12 -10 -14 -15 -5 -21
-46 -8 -54 6 -4 8 -2 4 4 -12 19 109 145 131 137 7 -2 12 -1 10 3 -1 4 2 8 7
9 5 0 13 8 18 17 5 9 13 14 19 11 5 -4 9 -1 9 5 0 6 5 8 10 5 6 -3 10 -2 10 4
0 9 56 27 73 23 4 -1 7 2 7 7 0 9 11 12 75 25 11 3 50 11 86 19 45 10 72 11
84 4 13 -7 16 -6 10 3 -6 9 7 11 53 8 33 -1 58 0 56 3 -2 3 10 6 26 7 23 0 28
-3 24 -16 -5 -15 -4 -15 5 -2 12 19 87 27 75 9 -5 -8 -3 -9 7 -3 20 13 82 13
98 0 11 -8 13 -8 8 0 -5 8 6 12 36 11 76 0 85 3 116 36 52 55 81 92 81 101 0
5 8 2 18 -5 15 -13 16 -12 4 3 -12 15 -11 22 9 50 13 18 27 36 32 39 5 3 8 9
8 13 -3 19 0 27 7 22 5 -3 9 1 9 9 0 18 -13 20 -23 4z"/>
<path d="M2775 1990 c-3 -5 -1 -10 4 -10 6 0 11 5 11 10 0 6 -2 10 -4 10 -3 0
-8 -4 -11 -10z"/>
<path d="M2700 1970 c-9 -6 -10 -10 -3 -10 6 0 15 5 18 10 8 12 4 12 -15 0z"/>
<path d="M354 1919 c-3 -6 -2 -15 3 -20 5 -5 9 -1 9 11 0 23 -2 24 -12 9z"/>
<path d="M396 1863 c-6 -14 -5 -15 5 -6 7 7 10 15 7 18 -3 3 -9 -2 -12 -12z"/>
<path d="M659 1863 c-13 -16 -12 -17 4 -4 9 7 17 15 17 17 0 8 -8 3 -21 -13z"/>
<path d="M816 1872 c-3 -5 1 -9 9 -9 8 0 12 4 9 9 -3 4 -7 8 -9 8 -2 0 -6 -4
-9 -8z"/>
<path d="M3390 1876 c0 -2 7 -7 16 -10 8 -3 12 -2 9 4 -6 10 -25 14 -25 6z"/>
<path d="M3549 1833 c-13 -16 -12 -17 4 -4 16 13 21 21 13 21 -2 0 -10 -8 -17
-17z"/>
<path d="M679 1823 c-13 -16 -12 -17 4 -4 9 7 17 15 17 17 0 8 -8 3 -21 -13z"/>
<path d="M3936 1828 c3 -4 11 -5 19 -1 21 7 19 12 -4 10 -11 0 -18 -5 -15 -9z"/>
<path d="M575 1773 c2 -32 10 -56 32 -96 8 -15 12 -35 9 -43 -3 -9 -1 -12 4
-9 9 6 14 -10 13 -42 -1 -7 3 -11 7 -8 11 7 23 -32 15 -45 -4 -6 -1 -9 7 -8 8
2 13 -6 12 -18 -1 -20 2 -21 33 -12 19 5 41 7 49 4 10 -4 12 -2 8 6 -5 7 0 9
14 6 12 -3 22 -2 24 2 3 7 42 16 113 25 17 2 48 6 70 10 22 4 47 8 55 10 8 1
18 -3 22 -9 5 -7 8 -7 8 3 0 11 3 11 17 0 11 -10 14 -10 9 -1 -5 9 4 12 36 13
24 0 54 2 68 3 14 2 28 -2 32 -8 5 -7 8 -7 8 0 0 6 28 9 78 8 42 -2 92 -3 111
-3 27 -1 32 -4 27 -18 -5 -15 -3 -14 9 2 14 17 17 18 25 5 6 -8 10 -10 10 -3
0 6 9 9 20 6 11 -3 17 -10 13 -17 -4 -6 1 -5 10 3 14 11 17 11 17 0 0 -11 2
-11 10 1 8 12 10 12 10 -5 0 -15 3 -16 9 -7 7 11 24 11 100 -3 50 -10 93 -21
96 -26 3 -4 12 -6 20 -2 8 3 15 1 15 -5 0 -5 6 -9 13 -9 26 3 97 -15 97 -24 0
-6 4 -8 10 -4 5 3 26 -1 46 -10 43 -18 70 -19 80 -3 4 6 3 8 -4 5 -10 -7 -62
46 -62 64 0 5 -6 9 -14 9 -8 0 -16 3 -18 8 -6 15 -84 69 -128 89 -87 39 -183
68 -214 64 -10 -1 -16 1 -13 6 9 14 -372 21 -736 13 -79 -2 -112 1 -124 11 -9
8 -14 9 -10 3 5 -9 -4 -9 -36 -1 -50 12 -122 51 -122 65 0 6 -3 13 -6 16 -3 4
-5 -6 -4 -21z"/>
<path d="M3835 1791 c-3 -5 -2 -12 3 -15 5 -3 9 1 9 9 0 17 -3 19 -12 6z"/>
<path d="M3686 1763 c-3 -8 -10 -12 -15 -9 -5 4 -11 1 -13 -4 -2 -6 -10 -12
-18 -14 -8 -2 -28 -8 -44 -15 -16 -6 -31 -9 -34 -6 -3 2 -11 0 -19 -6 -9 -8
-56 -11 -136 -9 -67 1 -216 3 -332 4 -127 0 -213 5 -217 11 -5 6 -8 5 -8 -4 0
-11 -3 -11 -17 0 -9 8 -14 9 -10 3 4 -7 -7 -12 -31 -13 -57 -3 -126 -13 -192
-26 -3 -1 -32 -9 -65 -20 -33 -10 -64 -17 -69 -16 -5 1 -12 -2 -15 -6 -3 -5
-31 -24 -61 -42 -30 -18 -68 -46 -85 -62 -16 -15 -34 -29 -40 -31 -5 -2 -9 -6
-8 -11 2 -4 -6 -16 -17 -27 -29 -29 -25 -40 10 -30 22 6 29 6 24 -3 -3 -7 1
-4 9 6 13 16 107 51 107 40 0 -3 6 -1 13 4 6 6 20 9 30 8 9 -2 17 0 17 5 0 4
15 10 33 13 17 3 41 9 51 13 12 5 17 4 13 -3 -3 -5 0 -10 8 -10 8 0 12 4 9 9
-3 4 8 11 25 14 34 7 47 4 43 -11 -1 -5 4 -2 11 7 8 11 33 19 63 22 121 13
153 16 212 19 56 4 61 3 50 -12 -11 -14 -11 -14 4 -3 21 17 72 27 63 12 -4 -7
2 -7 19 0 17 6 26 6 30 -3 3 -9 5 -9 5 0 1 14 59 7 75 -8 6 -5 15 -9 20 -9 6
0 4 4 -4 10 -10 6 -6 9 18 8 19 -1 29 -5 25 -12 -4 -8 -2 -7 6 0 8 7 25 9 44
4 18 -4 35 -7 40 -8 4 -1 19 -2 35 -2 21 0 24 -2 12 -10 -10 -6 -4 -8 22 -4
23 4 47 1 67 -9 17 -9 29 -11 26 -6 -8 11 6 12 24 0 11 -7 10 -11 -5 -20 -11
-6 -14 -11 -7 -11 6 0 15 5 18 11 4 6 22 8 44 4 42 -7 51 0 72 57 7 20 16 35
21 32 4 -3 5 2 2 10 -3 9 -1 16 6 16 6 0 9 4 5 9 -3 5 3 29 14 53 11 24 22 51
25 61 3 10 9 16 14 13 4 -2 8 3 8 13 0 21 -23 24 -30 4z"/>
<path d="M3915 1770 c3 -5 8 -10 11 -10 2 0 4 5 4 10 0 6 -5 10 -11 10 -5 0
-7 -4 -4 -10z"/>
<path d="M3514 1750 c0 -13 4 -16 10 -10 7 7 7 13 0 20 -6 6 -10 3 -10 -10z"/>
<path d="M3836 1748 c3 -5 10 -6 15 -3 13 9 11 12 -6 12 -8 0 -12 -4 -9 -9z"/>
<path d="M435 1720 c-4 -6 -11 -7 -17 -4 -7 4 -8 2 -4 -5 6 -9 11 -9 22 0 14
11 18 19 10 19 -3 0 -8 -5 -11 -10z"/>
<path d="M3895 1711 c-3 -5 -2 -12 3 -15 5 -3 9 1 9 9 0 17 -3 19 -12 6z"/>
<path d="M3879 1663 c-13 -16 -12 -17 4 -4 16 13 21 21 13 21 -2 0 -10 -8 -17
-17z"/>
<path d="M3693 1599 c-2 -23 3 -25 10 -4 4 8 3 16 -1 19 -4 3 -9 -4 -9 -15z"/>
<path d="M3770 1609 c0 -5 5 -7 10 -4 6 3 10 8 10 11 0 2 -4 4 -10 4 -5 0 -10
-5 -10 -11z"/>
<path d="M513 1585 c0 -8 4 -12 9 -9 5 3 6 10 3 15 -9 13 -12 11 -12 -6z"/>
<path d="M3890 1571 c0 -6 4 -13 10 -16 6 -3 7 1 4 9 -7 18 -14 21 -14 7z"/>
<path d="M506 1548 c3 -5 10 -6 15 -3 13 9 11 12 -6 12 -8 0 -12 -4 -9 -9z"/>
<path d="M3956 1543 c-6 -14 -5 -15 5 -6 7 7 10 15 7 18 -3 3 -9 -2 -12 -12z"/>
<path d="M1138 1534 c-7 -6 -41 -12 -109 -18 -26 -2 -53 -7 -59 -11 -8 -5 -11
-4 -7 2 3 5 0 10 -8 10 -8 0 -12 -4 -9 -9 3 -4 -9 -8 -26 -8 -21 0 -29 4 -24
12 4 7 3 8 -5 4 -6 -4 -9 -11 -6 -16 3 -4 -4 -10 -15 -13 -11 -3 -20 0 -20 6
0 9 -2 9 -8 1 -4 -6 -19 -10 -34 -10 -14 1 -24 -3 -21 -8 4 -5 -3 -7 -15 -4
-12 4 -22 2 -22 -3 0 -5 -6 -9 -14 -9 -48 0 -406 -138 -406 -157 0 -10 114
-103 126 -103 5 0 50 15 99 34 81 31 241 78 305 90 178 34 236 40 415 40 174
0 264 -8 415 -40 100 -22 235 -64 344 -108 50 -20 97 -36 106 -36 8 0 54 16
100 36 149 63 372 120 545 141 80 9 343 9 425 -1 91 -10 131 -16 160 -22 14
-3 36 -8 50 -11 89 -16 289 -79 361 -113 l37 -17 66 51 c36 28 65 54 66 57 0
9 -221 111 -237 110 -2 0 -8 1 -15 4 -50 16 -191 55 -228 63 -29 5 -44 13 -42
22 2 10 0 11 -10 3 -12 -10 -31 -9 -148 11 -14 2 -24 10 -22 17 2 10 -1 10
-10 -2 -9 -11 -22 -13 -44 -9 -17 4 -43 6 -58 4 -14 -1 -26 2 -26 7 0 6 -8 8
-17 5 -28 -8 -206 -9 -228 -1 -16 5 -17 5 -5 -4 12 -8 4 -11 -32 -11 -28 0
-48 5 -51 13 -4 7 -6 6 -6 -4 -1 -11 -9 -17 -23 -17 -13 1 -41 -2 -63 -6 -22
-4 -53 -9 -70 -12 -16 -3 -48 -10 -70 -16 -22 -6 -53 -12 -70 -15 -16 -2 -47
-11 -68 -19 -21 -8 -43 -12 -48 -9 -5 4 -9 2 -9 -3 0 -13 -97 -38 -130 -34
-84 10 -130 9 -154 -3 -15 -8 -26 -10 -26 -4 0 6 -5 7 -10 4 -6 -4 -23 0 -38
8 -16 7 -60 22 -100 32 -40 10 -68 23 -65 28 3 6 2 7 -4 4 -6 -4 -36 -1 -67 5
-42 9 -55 16 -51 27 4 11 2 11 -8 2 -8 -6 -25 -9 -38 -7 -13 3 -30 5 -37 5 -8
1 -10 6 -6 14 5 9 4 9 -5 1 -8 -7 -25 -9 -44 -4 -18 4 -35 7 -39 8 -5 1 -9 2
-10 3 -2 0 -31 1 -65 1 -35 1 -63 5 -63 10 0 5 -5 6 -11 2 -15 -9 -89 -8 -111
1 -10 4 -18 3 -18 -1 0 -11 -93 -12 -101 -1 -3 4 -8 5 -11 1z"/>
<path d="M3290 1530 c0 -5 5 -10 11 -10 5 0 7 5 4 10 -3 6 -8 10 -11 10 -2 0
-4 -4 -4 -10z"/>
<path d="M3870 1536 c0 -2 7 -7 16 -10 8 -3 12 -2 9 4 -6 10 -25 14 -25 6z"/>
<path d="M3989 1513 c-13 -16 -12 -17 4 -4 9 7 17 15 17 17 0 8 -8 3 -21 -13z"/>
<path d="M273 1505 c0 -8 4 -12 9 -9 5 3 6 10 3 15 -9 13 -12 11 -12 -6z"/>
<path d="M4065 1510 c-3 -6 1 -7 9 -4 18 7 21 14 7 14 -6 0 -13 -4 -16 -10z"/>
<path d="M3653 1465 c0 -8 4 -12 9 -9 5 3 6 10 3 15 -9 13 -12 11 -12 -6z"/>
<path d="M4149 1453 c-13 -16 -12 -17 4 -4 16 13 21 21 13 21 -2 0 -10 -8 -17
-17z"/>
<path d="M2110 1449 c0 -5 5 -7 10 -4 6 3 10 8 10 11 0 2 -4 4 -10 4 -5 0 -10
-5 -10 -11z"/>
<path d="M119 1423 c-13 -16 -12 -17 4 -4 9 7 17 15 17 17 0 8 -8 3 -21 -13z"/>
<path d="M156 1432 c-3 -5 1 -9 9 -9 8 0 12 4 9 9 -3 4 -7 8 -9 8 -2 0 -6 -4
-9 -8z"/>
<path d="M4065 1429 c-3 -4 2 -6 10 -5 21 3 28 13 10 13 -9 0 -18 -4 -20 -8z"/>
<path d="M155 1401 c-3 -5 -2 -12 3 -15 5 -3 9 1 9 9 0 17 -3 19 -12 6z"/>
<path d="M274 1390 c0 -13 4 -16 10 -10 7 7 7 13 0 20 -6 6 -10 3 -10 -10z"/>
<path d="M3955 1401 c-3 -5 -2 -12 3 -15 5 -3 9 1 9 9 0 17 -3 19 -12 6z"/>
<path d="M4070 1406 c0 -2 8 -10 18 -17 15 -13 16 -12 3 4 -13 16 -21 21 -21
13z"/>
<path d="M120 1396 c0 -2 8 -10 18 -17 15 -13 16 -12 3 4 -13 16 -21 21 -21
13z"/>
<path d="M200 1330 c-9 -6 -10 -10 -3 -10 6 0 15 5 18 10 8 12 4 12 -15 0z"/>
</g>
</svg>
