<svg id="Layer_1" data-name="Layer 1" xmlns="http://www.w3.org/2000/svg" viewBox="0 0 121.87 121.85"><defs><style>.cls-1{fill:#fff;}</style></defs><title>info</title><path class="cls-1" d="M1248.21,1189.07h3.73a2.35,2.35,0,0,0,.41.06c.44,0,.89,0,1.33,0,.82.06,1.64.12,2.47.2s1.56.15,2.34.25,1.8.28,2.7.43c1.76.3,3.5.7,5.23,1.17a59.48,59.48,0,0,1,13.91,5.83,61,61,0,0,1,25.47,28.16,57.44,57.44,0,0,1,3.72,11.2c.28,1.26.52,2.53.72,3.81.13.79.22,1.58.32,2.37s.14,1.34.2,2c0,.52.08,1,.1,1.55s0,.94,0,1.41c0,.13,0,.27,0,.41v4c0,.13,0,.27,0,.4,0,.77,0,1.55-.09,2.32-.09,1.14-.2,2.28-.34,3.41-.19,1.46-.43,2.91-.73,4.35a58.49,58.49,0,0,1-2.42,8.51,61.18,61.18,0,0,1-6.67,13,60,60,0,0,1-10.77,12.16,62.17,62.17,0,0,1-10.09,7,59.26,59.26,0,0,1-12.87,5.38q-2.63.75-5.32,1.25c-.83.16-1.67.28-2.51.4-.64.1-1.28.17-1.92.25s-1.31.15-2,.2c-1,.07-2,.12-3,.18-.09,0-.17,0-.25.06h-3.73a3.44,3.44,0,0,0-.41-.06c-.68,0-1.37-.06-2.05-.12s-1.49-.13-2.24-.2-1.49-.15-2.23-.26q-1.5-.23-3-.5a52.47,52.47,0,0,1-6-1.48,61.21,61.21,0,0,1-22.35-12.45,58.94,58.94,0,0,1-9.23-10.13,60.88,60.88,0,0,1-9.06-18.31,58.72,58.72,0,0,1-1.55-6.58c-.24-1.35-.43-2.7-.56-4.07s-.25-2.62-.29-3.94c0-.23,0-.46,0-.68a1.16,1.16,0,0,0-.11-.52v-3.35a1,1,0,0,0,.12-.59c0-.64.06-1.29.1-1.93.07-1,.15-2,.25-3,.13-1.17.3-2.34.5-3.5q.48-2.74,1.2-5.42a59.19,59.19,0,0,1,6.06-14.43,60.33,60.33,0,0,1,13.77-16.31,61.63,61.63,0,0,1,17.59-10.25,55,55,0,0,1,8.37-2.44c1-.21,2-.4,3.06-.58.59-.1,1.21-.17,1.81-.25l1.44-.17c.71-.07,1.41-.15,2.12-.2s1.57-.07,2.36-.11A1.77,1.77,0,0,0,1248.21,1189.07Zm12,83.72a1.17,1.17,0,0,1,0-.52v-39.7c0-.23,0-.46,0-.68a2.39,2.39,0,0,0-1.77-2.1,3.49,3.49,0,0,0-.9-.08h-25.42a2.4,2.4,0,0,0-2.23,1.81,3.32,3.32,0,0,0-.08.79v12.52c0,.11,0,.23,0,.34a2.35,2.35,0,0,0,2,2.21,5.42,5.42,0,0,0,.72.06h7l.42,0a2.24,2.24,0,0,1,0,.51v24.32c0,.1,0,.21,0,.3s0,.14,0,.23h-7.32c-.21,0-.43,0-.64,0a2.38,2.38,0,0,0-2,1.74,3,3,0,0,0-.09.79V1288c0,.1,0,.21,0,.3a2.4,2.4,0,0,0,1.73,2.14,3.43,3.43,0,0,0,1,.1h35.13l.53,0a2.36,2.36,0,0,0,2.14-1.94,3.89,3.89,0,0,0,.06-.68v-12.44a4.84,4.84,0,0,0-.06-.68,2.37,2.37,0,0,0-2.07-1.93c-.21,0-.43,0-.64,0h-6.89A.86.86,0,0,1,1260.23,1272.8Zm-10.2-53.26h7.84a2.39,2.39,0,0,0,2.24-1.8,3.77,3.77,0,0,0,.09-.94v-12.25c0-.17,0-.36,0-.53a2.36,2.36,0,0,0-1.64-2.08,3.14,3.14,0,0,0-1-.13h-15.26a2.4,2.4,0,0,0-2.23,1.71,2.88,2.88,0,0,0-.12.86V1217a2.81,2.81,0,0,0,.07.68,2.32,2.32,0,0,0,1.79,1.82,3,3,0,0,0,.75.07Z" transform="translate(-1189.06 -1189.07)"/></svg>