<svg id="Layer_1" data-name="Layer 1" xmlns="http://www.w3.org/2000/svg" viewBox="0 0 86.83 74.39"><defs><style>.cls-1{fill:none;}</style></defs><title>link</title><path class="cls-1" d="M451.57,281.94c-2,2-4,4-5.93,6l-25.29,25.22c-1.21,1.21-1.79,1.2-3,0q-2.35-2.37-4.74-4.73c-1.08-1.07-1.1-1.74,0-2.83l30.6-30.66c.71-.71.71-.71,0-1.42-2.58-2.58-5.19-5.16-7.75-7.76a3,3,0,0,1,1-5.09,3.25,3.25,0,0,1,1.11-.19h24.57a3.17,3.17,0,0,1,3.21,3.46v24a3.18,3.18,0,0,1-2.92,3.42h-.29a3.26,3.26,0,0,1-2.24-1.11c-2.59-2.61-5.2-5.2-7.81-7.81Z" transform="translate(-378.53 -260.48)"/><path class="cls-1" d="M412.64,334.87H392.27c-5,0-8.78-2.38-11.54-6.44a13,13,0,0,1-2.19-7.54V280.72a13.86,13.86,0,0,1,9.81-13.39,17,17,0,0,1,4.56-.64c11.07-.06,22.12,0,33.19,0,1.21,0,2.14.36,2,2v2.49a1.44,1.44,0,0,1-1.26,1.6H393.2a12.69,12.69,0,0,0-3,.36,7.65,7.65,0,0,0-5.43,6.7c0,1-.1,2-.1,3v37.47a8.07,8.07,0,0,0,1.72,5.43,7.78,7.78,0,0,0,6.32,3h39.62a7.9,7.9,0,0,0,8.3-7.47q0-.34,0-.69V305.88c0-1.44.47-1.92,1.91-1.92h2.71a1.43,1.43,0,0,1,1.51,1.52c0,5.51.16,11-.06,16.52-.17,4.62-2.58,8.15-6.38,10.71a12.5,12.5,0,0,1-7.11,2.15Z" transform="translate(-378.53 -260.48)"/></svg>